<?xml version="1.0" encoding="UTF-8" standalone="no"?>
<!DOCTYPE svg PUBLIC "-//W3C//DTD SVG 1.1//EN" "http://www.w3.org/Graphics/SVG/1.1/DTD/svg11.dtd">
<!-- Généré par Microsoft Visio, SVG Export ds.svg Page 1 -->
<svg xmlns="http://www.w3.org/2000/svg" xmlns:xlink="http://www.w3.org/1999/xlink" xmlns:ev="http://www.w3.org/2001/xml-events"
		width="7.40733in" height="3.47661in" viewBox="0 0 533.327 250.316" xml:space="preserve" color-interpolation-filters="sRGB"
		class="st21">
	<style type="text/css">
	<![CDATA[
		.st1 {stroke:#000000;stroke-dasharray:3,6;stroke-linecap:round;stroke-linejoin:round;stroke-width:3}
		.st2 {fill:#008000;stroke:#00ff00;stroke-linecap:round;stroke-linejoin:round;stroke-width:0.75}
		.st3 {fill:#800000;stroke:#000000;stroke-linecap:round;stroke-linejoin:round;stroke-width:0.75}
		.st4 {fill:#ffffff;stroke:#000000;stroke-linecap:round;stroke-linejoin:round;stroke-width:0.75;visibility:hidden}
		.st5 {fill:#ff00ff;fill-opacity:0;stroke:#000000;stroke-opacity:0;stroke-width:0.72}
		.st6 {fill:#668ace;stroke:#ffffff;stroke-width:0.72}
		.st7 {fill:url(#grad0-28);stroke:none;stroke-width:0.72}
		.st8 {fill:url(#grad7-35);stroke:#000000;stroke-width:0.24}
		.st9 {fill:url(#grad3-39);stroke:#000000;stroke-width:0.12}
		.st10 {fill:url(#grad0-28);stroke:#ffffff;stroke-width:0.24}
		.st11 {fill:url(#grad10-50);stroke:#000000;stroke-width:0.72}
		.st12 {stroke:#c8c8c8;stroke-width:1.5}
		.st13 {fill:url(#grad10-50);stroke:#000000;stroke-width:0.24}
		.st14 {stroke:#70ad47;stroke-linecap:round;stroke-linejoin:round;stroke-width:6}
		.st15 {marker-end:url(#mrkr5-72);marker-start:url(#mrkr5-70);stroke:#4672c4;stroke-linecap:round;stroke-linejoin:round;stroke-width:1}
		.st16 {fill:#4672c4;fill-opacity:1;stroke:#4672c4;stroke-opacity:1;stroke-width:0.28409090909091}
		.st17 {fill:#ffffff;stroke:none;stroke-linecap:butt}
		.st18 {fill:#3c63ac;font-family:Calibri;font-size:1.00001em}
		.st19 {fill:#ffffff;stroke:none;stroke-linecap:butt;stroke-width:7.2}
		.st20 {font-size:1em;font-style:italic}
		.st21 {fill:none;fill-rule:evenodd;font-size:12px;overflow:visible;stroke-linecap:square;stroke-miterlimit:3}
	]]>
	</style>

	<defs id="Patterns_And_Gradients">
		<linearGradient id="grad0-28" x1="0" y1="0" x2="1" y2="0" gradientTransform="rotate(180 0.5 0.5)">
			<stop offset="0.01" stop-color="#3e3e3e" stop-opacity="1"/>
			<stop offset="0.5" stop-color="#365fa9" stop-opacity="1"/>
			<stop offset="1" stop-color="#3e3e3e" stop-opacity="1"/>
		</linearGradient>
		<radialGradient id="grad7-35" cx="0" cy="0" r="1.4">
			<stop offset="0" stop-color="#ffffff" stop-opacity="1"/>
			<stop offset="1" stop-color="#c0c0c0" stop-opacity="1"/>
		</radialGradient>
		<radialGradient id="grad3-39" cx="0.5" cy="0.5" r="0.73">
			<stop offset="0" stop-color="#ffffff" stop-opacity="1"/>
			<stop offset="1" stop-color="#008000" stop-opacity="1"/>
		</radialGradient>
		<pattern id="grad10-50" x="0" y="0" width="1" height="1" patternContentUnits="objectBoundingBox">
			<path d="M 0.5 0.5 L 0 0 L 0 1 z" style="fill:url(#grad0-51)"/>
			<path d="M 0.5 0.5 L 1 0 L 1 1 z" style="fill:url(#grad0-52)"/>
			<path d="M 0.5 0.5 L 0 0 L 1 0 z" style="fill:url(#grad0-53)"/>
			<path d="M 0.5 0.5 L 0 1 L 1 1 z" style="fill:url(#grad0-54)"/>
		</pattern>
		<linearGradient id="grad0-51" x1="0" y1="0" x2="1" y2="0" gradientTransform="rotate(180 0.5 0.5)">
			<stop offset="0" stop-color="#ffffff" stop-opacity="1"/>
			<stop offset="1" stop-color="#c6d1e3" stop-opacity="1"/>
		</linearGradient>
		<linearGradient id="grad0-52" x1="0" y1="0" x2="1" y2="0" gradientTransform="rotate(360 0.5 0.5)">
			<stop offset="0" stop-color="#ffffff" stop-opacity="1"/>
			<stop offset="1" stop-color="#c6d1e3" stop-opacity="1"/>
		</linearGradient>
		<linearGradient id="grad0-53" x1="0" y1="0" x2="1" y2="0" gradientTransform="rotate(270 0.5 0.5)">
			<stop offset="0" stop-color="#ffffff" stop-opacity="1"/>
			<stop offset="1" stop-color="#c6d1e3" stop-opacity="1"/>
		</linearGradient>
		<linearGradient id="grad0-54" x1="0" y1="0" x2="1" y2="0" gradientTransform="rotate(90 0.5 0.5)">
			<stop offset="0" stop-color="#ffffff" stop-opacity="1"/>
			<stop offset="1" stop-color="#c6d1e3" stop-opacity="1"/>
		</linearGradient>
	</defs>
	<defs id="Markers">
		<g id="lend5">
			<path d="M 2 1 L 0 0 L 1.98117 -0.993387 C 1.67173 -0.364515 1.67301 0.372641 1.98465 1.00043 " style="stroke:none"/>
		</g>
		<marker id="mrkr5-70" class="st16" refX="5.8" orient="auto" markerUnits="strokeWidth" overflow="visible">
			<use xlink:href="#lend5" transform="scale(3.52) "/>
		</marker>
		<marker id="mrkr5-72" class="st16" refX="-6.16" orient="auto" markerUnits="strokeWidth" overflow="visible">
			<use xlink:href="#lend5" transform="scale(-3.52,-3.52) "/>
		</marker>
	</defs>
	<g>
		<title>Page 1</title>
		<g id="shape42-1" transform="translate(465.914,29.8465) rotate(90)">
			<title>Feuille.42</title>
			<path d="M0 250.32 L155.91 250.32" class="st1"/>
		</g>
		<g id="shape39-4" transform="translate(550.954,58.1929) rotate(90)">
			<title>Feuille.39</title>
			<path d="M0 250.32 L184.25 250.32" class="st1"/>
		</g>
		<g id="shape40-7" transform="translate(721.032,1.5) rotate(90)">
			<title>Feuille.40</title>
			<path d="M0 250.32 L184.25 250.32" class="st1"/>
		</g>
		<g id="shape41-10" transform="translate(295.836,1.5) rotate(90)">
			<title>Feuille.41</title>
			<path d="M0 250.32 L240.94 250.32" class="st1"/>
		</g>
		<g id="group8-13" transform="translate(277.294,-60.3953)">
			<title>Arbre</title>
			<g id="shape9-14" transform="translate(0,-28.013)">
				<title>Feuille.9</title>
				<path d="M23.34 184.95 L3.89 203.63 L11.67 203.63 L3.89 222.3 L11.67 222.3 L3.89 240.98 L10.7 240.98 L0 250.32 L46.69
							 250.32 L36.96 240.98 L42.8 240.98 L35.02 222.3 L42.8 222.3 L35.02 203.63 L42.8 203.63 L23.34 184.95
							 Z" class="st2"/>
			</g>
			<g id="shape10-16" transform="translate(18.4808,2.84217E-14)">
				<title>Feuille.10</title>
				<path d="M0 247.51 L0 222.3 L9.73 222.3 L9.73 247.51 L4.86 250.32 L0 247.51 Z" class="st3"/>
			</g>
			<g id="shape11-18" transform="translate(-6.65586,14.4)">
				<title>Feuille.11</title>
				<rect x="0" y="235.916" width="60" height="14.4" class="st4"/>
			</g>
		</g>
		<g id="group12-20" transform="translate(59.6929,-90.0757) scale(-1,1)">
			<title>Appareil photo numérique</title>
			<g id="shape13-21">
				<title>Feuille.13</title>
				<path d="M28.35 227.07 A14.8818 13.1541 177.61 0 1 24.94 229.91 A14.8732 13.1465 -2.5 0 0 28.35 227.07 ZM19.84 250.32
							 A11.6443 10.2925 -2.19 0 0 28.35 245.5 L28.35 227.07 A107.308 94.8503 -177.86 0 0 9.92 216.3 A22.5917
							 19.9689 -3.66 0 0 -0 221.97 L0 240.39 A8.6038 7.60494 -8.1 0 0 6.24 242.52 L19.84 250.32 Z"
						class="st5"/>
			</g>
			<g id="shape14-23" transform="translate(0,-18.4252)">
				<title>Feuille.14</title>
				<path d="M19.84 250.32 A14.8732 13.1465 -2.5 0 0 28.35 245.5 A107.308 94.8503 -177.86 0 0 9.92 234.73 A22.5917 19.9689
							 -3.66 0 0 0 240.39 A5.69741 5.03597 -9.83 0 0 6.24 242.38 L19.84 250.32 Z" class="st6"/>
			</g>
			<g id="shape15-25" transform="translate(19.8425,-1.42109E-13)">
				<title>Feuille.15</title>
				<path d="M0 250.32 A11.6443 10.2925 -2.19 0 0 8.5 245.5 L8.5 227.07 A14.8818 13.1541 177.61 0 1 -0 231.89 L0 250.32
							 Z" class="st7"/>
			</g>
			<g id="shape16-29" transform="translate(0,-7.78829)">
				<title>Feuille.16</title>
				<path d="M-0 248.18 A8.6038 7.60494 -8.1 0 0 6.24 250.31 L6.24 231.74 A5.90581 5.22017 170.23 0 1 -0 229.76 L0 248.18
							 Z" class="st7"/>
			</g>
			<g id="shape17-32" transform="translate(6.23622,2.84217E-14)">
				<title>Feuille.17</title>
				<path d="M0 242.52 L13.61 250.32 L13.61 231.89 L0 223.95 L0 242.52 Z" class="st8"/>
			</g>
			<g id="shape18-36" transform="translate(-112.371,436.579) rotate(-150)">
				<title>Feuille.18</title>
				<path d="M3.97 249.01 A1.98752 1.15982 -3.93 1 1 0 249.29 A1.98752 1.15982 -3.93 1 1 3.97 249.01 Z" class="st9"/>
			</g>
			<g id="group19-40" transform="translate(5.66929,-7.79821)">
				<title>Feuille.19</title>
				<g id="shape20-41" transform="translate(-0.080543,0.0451398)">
					<title>Feuille.20</title>
					<path d="M9.04 248.68 A6.36348 3.97115 -120 1 0 2.66 237.67 L0 239.25 A8.72958 8.72958 0 0 1 6.29 250.32 L9.04
								 248.68 Z" class="st10"/>
				</g>
				<g id="shape21-44" transform="translate(-122.378,35.5593) rotate(-30)">
					<title>Feuille.21</title>
					<ellipse cx="3.97115" cy="243.952" rx="3.97115" ry="6.36348" class="st8"/>
				</g>
				<g id="shape22-47" transform="translate(-122.099,33.4717) rotate(-30)">
					<title>Feuille.22</title>
					<ellipse cx="2.47503" cy="245.568" rx="2.47503" ry="4.74814" class="st11"/>
				</g>
			</g>
			<g id="shape23-55" transform="translate(0,-0.10666)">
				<title>Feuille.23</title>
				<path d="M0 222.08 L0 240.5 A8.83966 8.83966 -180 0 0 6.24 242.63 L19.84 250.42 A11.9802 11.9802 -180 0 0 28.35 245.6
							 L28.35 227.18 L9.92 216.41 A23.557 23.557 -180 0 0 0 222.08" class="st12"/>
			</g>
			<g id="shape24-58" transform="translate(15.3071,-14.7402)">
				<title>Feuille.24</title>
				<path d="M0 248.05 L3.97 250.32 L3.97 247.2 L0 244.93 L0 248.05 Z" class="st13"/>
			</g>
		</g>
		<g id="shape38-61" transform="translate(3,-64.5639)">
			<title>Feuille.38</title>
			<path d="M0 250.32 L527.33 250.32" class="st14"/>
		</g>
		<g id="shape43-64" transform="translate(44.9311,492.761) scale(1,-1)">
			<title>Feuille.43</title>
			<desc>Distance de mise au point (DS)</desc>
			<path d="M5.8 250.32 L6.16 250.32 L249.55 250.32" class="st15"/>
			<rect x="53.4886" y="243.116" width="148.73" height="14.4001" class="st17"/>
			<text x="53.49" y="-246.72" transform="scale(1,-1)" class="st18">Distance de mise au point (DS)</text>		</g>
		<g id="shape44-75" transform="translate(45.5197,308.509) scale(1,-1)">
			<title>Feuille.44</title>
			<desc>Limite Antérieure (A)</desc>
			<path d="M5.8 250.32 L6.16 250.32 L163.92 250.32" class="st15"/>
			<rect x="33.8486" y="243.116" width="102.382" height="14.4001" class="st19"/>
			<text x="33.85" y="-246.72" transform="scale(1,-1)" class="st18">Limite Antérieure (A)</text>		</g>
		<g id="shape45-84" transform="translate(45.5197,265.989) scale(1,-1)">
			<title>Feuille.45</title>
			<desc>Limite Postérieure (B)</desc>
			<path d="M5.8 250.32 L6.16 250.32 L419.04 250.32" class="st15"/>
			<rect x="159.629" y="243.116" width="105.939" height="14.4001" class="st17"/>
			<text x="159.63" y="-246.72" transform="scale(1,-1)" class="st18">Limite Postérieure (B)</text>		</g>
		<g id="shape49-93" transform="translate(215.598,322.682) scale(1,-1)">
			<title>Feuille.49</title>
			<desc>[ zna ]</desc>
			<path d="M5.8 250.32 L6.16 250.32 L78.88 250.32" class="st15"/>
			<rect x="27.5872" y="243.116" width="29.865" height="14.4001" class="st19"/>
			<text x="27.59" y="-246.72" transform="scale(1,-1)" class="st18">[ <tspan class="st20">zna</tspan> ]</text>		</g>
		<g id="shape50-103" transform="translate(300.638,322.682) scale(1,-1)">
			<title>Feuille.50</title>
			<desc>[ znp ]</desc>
			<path d="M5.8 250.32 L6.16 250.32 L163.92 250.32" class="st15"/>
			<rect x="68.7505" y="243.116" width="32.5778" height="14.4001" class="st19"/>
			<text x="71.46" y="-246.72" transform="scale(1,-1)" class="st18">[ <tspan class="st20">znp</tspan> ]</text>		</g>
		<g id="shape51-113" transform="translate(215.598,294.336) scale(1,-1)">
			<title>Feuille.51</title>
			<desc>[ zn ]</desc>
			<path d="M5.8 250.32 L6.16 250.32 L249.55 250.32" class="st15"/>
			<rect x="114.649" y="243.116" width="26.4078" height="14.4001" class="st19"/>
			<text x="117.36" y="-246.72" transform="scale(1,-1)" class="st18">[ <tspan class="st20">zn</tspan> ]</text>		</g>
	</g>
</svg>
